<svg width="40" height="40" viewBox="0 0 40 40" fill="none" xmlns="http://www.w3.org/2000/svg">
<rect width="40" height="40" rx="20" fill="#F2F2F2"/>
<path d="M16.2501 26H23.7501V27.5H16.2501V26ZM17.7501 29H22.2501V30.5H17.7501V29ZM20.0001 9.5C18.011 9.5 16.1033 10.2902 14.6968 11.6967C13.2903 13.1032 12.5001 15.0109 12.5001 17C12.4494 18.09 12.6582 19.1765 13.1093 20.17C13.5605 21.1636 14.2411 22.0358 15.0951 22.715C15.8451 23.4125 16.2501 23.81 16.2501 24.5H17.7501C17.7501 23.12 16.9176 22.3475 16.1076 21.605C15.4066 21.0682 14.848 20.3677 14.4806 19.5649C14.1131 18.7621 13.9482 17.8814 14.0001 17C14.0001 15.4087 14.6323 13.8826 15.7575 12.7574C16.8827 11.6321 18.4088 11 20.0001 11C21.5914 11 23.1175 11.6321 24.2428 12.7574C25.368 13.8826 26.0001 15.4087 26.0001 17C26.0512 17.882 25.8851 18.7631 25.5163 19.566C25.1476 20.3689 24.5875 21.069 23.8851 21.605C23.0826 22.355 22.2501 23.105 22.2501 24.5H23.7501C23.7501 23.81 24.1476 23.4125 24.9051 22.7075C25.7586 22.0295 26.4389 21.1585 26.89 20.1663C27.3411 19.174 27.5503 18.0888 27.5001 17C27.5001 16.0151 27.3061 15.0398 26.9292 14.1299C26.5523 13.2199 25.9999 12.3931 25.3034 11.6967C24.607 11.0003 23.7802 10.4478 22.8703 10.0709C21.9603 9.69399 20.985 9.5 20.0001 9.5Z" fill="black"/>
</svg>
