<svg width="40" height="40" viewBox="0 0 40 40" fill="none" xmlns="http://www.w3.org/2000/svg">
<rect width="40" height="40" rx="20" fill="#F6F6F6"/>
<path d="M28 22.5V14.5C28 12.614 28 11.672 27.414 11.086C26.828 10.5 25.886 10.5 24 10.5H16C14.114 10.5 13.172 10.5 12.586 11.086C12 11.672 12 12.614 12 14.5V22.5M11.498 23.515L12.02 22.5H27.952L28.502 23.515C29.945 26.177 30.305 27.508 29.756 28.504C29.207 29.5 27.754 29.5 24.846 29.5H15.154C12.245 29.5 10.791 29.5 10.243 28.504C9.694 27.508 10.054 26.177 11.498 23.515Z" stroke="black" stroke-width="1.5" stroke-linecap="round" stroke-linejoin="round"/>
<path d="M23.5 15L24.42 15.793C24.807 16.126 25 16.293 25 16.5C25 16.707 24.807 16.874 24.42 17.207L23.5 18M16.5 15L15.58 15.793C15.193 16.126 15 16.293 15 16.5C15 16.707 15.193 16.874 15.58 17.207L16.5 18M21 14L19 19" stroke="black" stroke-width="1.5" stroke-linecap="round" stroke-linejoin="round"/>
</svg>
