<svg width="40" height="40" viewBox="0 0 40 40" fill="none" xmlns="http://www.w3.org/2000/svg">
<rect width="40" height="40" rx="20" fill="#F6F6F6"/>
<path d="M22 10H18C14.72 10 13.081 10 11.919 10.814C11.489 11.1151 11.1151 11.489 10.814 11.919C10 13.08 10 14.72 10 18C10 21.28 10 22.919 10.814 24.081C11.1151 24.511 11.489 24.8849 11.919 25.186C13.08 26 14.72 26 18 26H22C25.28 26 26.919 26 28.081 25.186C28.511 24.8849 28.8849 24.511 29.186 24.081C30 22.92 30 21.28 30 18C30 14.72 30 13.081 29.186 11.919C28.8849 11.489 28.511 11.1151 28.081 10.814C26.92 10 25.28 10 22 10Z" stroke="black" stroke-width="1.5" stroke-linecap="round" stroke-linejoin="round"/>
<path d="M24 16L25.227 17.057C25.742 17.502 26 17.724 26 18C26 18.276 25.742 18.498 25.227 18.943L24 20M16 16L14.773 17.057C14.258 17.502 14 17.724 14 18C14 18.276 14.258 18.498 14.773 18.943L16 20M21 15L19 21M22.656 30L22.236 29.581C21.7755 29.1206 21.4716 28.527 21.3675 27.8842C21.2634 27.2414 21.3643 26.5822 21.656 26M17 30L17.42 29.581C17.8805 29.1206 18.1844 28.527 18.2885 27.8842C18.3926 27.2414 18.2917 26.5822 18 26M15 30H25" stroke="black" stroke-width="1.5" stroke-linecap="round" stroke-linejoin="round"/>
</svg>
