<svg width="40" height="40" viewBox="0 0 40 40" fill="none" xmlns="http://www.w3.org/2000/svg">
<rect width="40" height="40" rx="20" fill="#F6F6F6"/>
<path d="M24.125 14.75C24.7463 14.75 25.25 14.2463 25.25 13.625C25.25 13.0037 24.7463 12.5 24.125 12.5C23.5037 12.5 23 13.0037 23 13.625C23 14.2463 23.5037 14.75 24.125 14.75Z" fill="black"/>
<path d="M18.8105 23H14.75V18.9395L19.2725 14.417C19.2573 14.2785 19.2497 14.1393 19.25 14C19.25 13.11 19.5139 12.24 20.0084 11.4999C20.5029 10.7599 21.2057 10.1831 22.0279 9.84254C22.8502 9.50195 23.755 9.41283 24.6279 9.58647C25.5008 9.7601 26.3026 10.1887 26.932 10.818C27.5613 11.4474 27.9899 12.2492 28.1635 13.1221C28.3372 13.995 28.2481 14.8998 27.9075 15.7221C27.5669 16.5443 26.9901 17.2471 26.2501 17.7416C25.51 18.2361 24.64 18.5 23.75 18.5C23.6107 18.5003 23.4715 18.4927 23.333 18.4775L18.8105 23ZM16.25 21.5H18.1895L22.817 16.8725L23.2055 16.9438C23.3849 16.9791 23.5672 16.9979 23.75 17C24.3773 17.0077 24.9916 16.821 25.5085 16.4656C26.0254 16.1101 26.4196 15.6033 26.6369 15.0148C26.8541 14.4263 26.8839 13.7849 26.722 13.1788C26.5601 12.5728 26.2145 12.0317 25.7327 11.6299C25.2509 11.2281 24.6565 10.9854 24.0312 10.935C23.4059 10.8847 22.7803 11.0292 22.2404 11.3487C21.7005 11.6682 21.2728 12.147 21.016 12.7193C20.7592 13.2917 20.6859 13.9296 20.8063 14.5453L20.8775 14.933L16.25 19.5605V21.5ZM29 23H22.25V24.5H29V29H11V24.5H12.5V23H11C10.6022 23 10.2206 23.158 9.93934 23.4393C9.65804 23.7206 9.5 24.1022 9.5 24.5V29C9.5 29.3978 9.65804 29.7794 9.93934 30.0607C10.2206 30.342 10.6022 30.5 11 30.5H29C29.3978 30.5 29.7794 30.342 30.0607 30.0607C30.342 29.7794 30.5 29.3978 30.5 29V24.5C30.5 24.1022 30.342 23.7206 30.0607 23.4393C29.7794 23.158 29.3978 23 29 23Z" fill="black"/>
<path d="M13.25 27.5C13.6642 27.5 14 27.1642 14 26.75C14 26.3358 13.6642 26 13.25 26C12.8358 26 12.5 26.3358 12.5 26.75C12.5 27.1642 12.8358 27.5 13.25 27.5Z" fill="black"/>
</svg>
