<svg width="24" height="24" viewBox="0 0 24 24" fill="none" xmlns="http://www.w3.org/2000/svg">
<path fill-rule="evenodd" clip-rule="evenodd" d="M2.48499 12.25C2.48499 12.0511 2.564 11.8603 2.70466 11.7197C2.84531 11.579 3.03607 11.5 3.23499 11.5C8.62499 11.5 12.993 15.865 12.993 21.25C12.993 21.449 12.9139 21.6399 12.7732 21.7807C12.6324 21.9214 12.4415 22.0005 12.2425 22.0005C12.0434 22.0005 11.8525 21.9214 11.7118 21.7807C11.5711 21.6399 11.492 21.449 11.492 21.25C11.492 16.694 7.79499 13 3.23499 13C3.03607 13 2.84531 12.921 2.70466 12.7803C2.564 12.6397 2.48499 12.4489 2.48499 12.25ZM3.23499 14.5C3.03607 14.5 2.84531 14.579 2.70466 14.7197C2.564 14.8603 2.48499 15.0511 2.48499 15.25C2.48499 15.4489 2.564 15.6397 2.70466 15.7803C2.84531 15.921 3.03607 16 3.23499 16C3.92469 15.9997 4.60769 16.1353 5.24499 16.399C5.88229 16.6627 6.46142 17.0494 6.9493 17.5369C7.43718 18.0244 7.82426 18.6032 8.08844 19.2403C8.35262 19.8774 8.48872 20.5603 8.48899 21.25C8.48899 21.4492 8.56811 21.6402 8.70895 21.781C8.84979 21.9219 9.04081 22.001 9.23999 22.001C9.43916 22.001 9.63018 21.9219 9.77102 21.781C9.91186 21.6402 9.99099 21.4492 9.99099 21.25C9.99059 20.3632 9.81553 19.4851 9.4758 18.666C9.13606 17.8468 8.63831 17.1026 8.01096 16.4758C7.3836 15.849 6.63894 15.3519 5.81947 15.0129C5.00001 14.6739 4.1218 14.4996 3.23499 14.5ZM2.48499 18.25C2.48499 18.0511 2.564 17.8603 2.70466 17.7197C2.84531 17.579 3.03607 17.5 3.23499 17.5C3.72766 17.4997 4.21556 17.5965 4.67081 17.7849C5.12607 17.9732 5.53977 18.2493 5.88828 18.5976C6.23679 18.9458 6.51329 19.3593 6.70198 19.8144C6.89067 20.2695 6.98785 20.7573 6.98799 21.25C6.98799 21.449 6.90892 21.6399 6.76817 21.7807C6.62742 21.9214 6.43653 22.0005 6.23749 22.0005C6.03844 22.0005 5.84755 21.9214 5.7068 21.7807C5.56606 21.6399 5.48699 21.449 5.48699 21.25C5.48699 20.9544 5.42872 20.6616 5.31552 20.3885C5.20233 20.1154 5.03641 19.8673 4.82727 19.6583C4.61813 19.4493 4.36985 19.2837 4.09664 19.1707C3.82342 19.0577 3.53063 18.9997 3.23499 19C3.03607 19 2.84531 18.921 2.70466 18.7803C2.564 18.6397 2.48499 18.4489 2.48499 18.25Z" fill="#FAFAFA"/>
<path d="M2 10.369C2.355 10.136 2.78 10 3.235 10C9.453 10 14.495 15.037 14.495 21.25C14.495 21.513 14.449 21.765 14.366 22C17.893 21.999 19.694 21.96 20.828 20.788C22 19.576 22 17.626 22 13.725V12.204C22 9.915 22 8.771 21.48 7.823C20.96 6.874 20.012 6.286 18.113 5.108L16.11 3.867C14.104 2.622 13.101 2 11.992 2C10.883 2 9.88 2.622 7.872 3.867L5.872 5.108C3.972 6.286 3.023 6.874 2.504 7.823C2.146 8.476 2.034 9.221 2 10.368" fill="#FAFAFA"/>
</svg>
