<svg width="40" height="40" viewBox="0 0 40 40" fill="none" xmlns="http://www.w3.org/2000/svg">
<rect width="40" height="40" rx="20" fill="#F6F6F6"/>
<path d="M10 20C10 15.286 10 12.929 11.464 11.464C12.93 10 15.286 10 20 10C24.714 10 27.071 10 28.535 11.464C30 12.93 30 15.286 30 20C30 24.714 30 27.071 28.535 28.535C27.072 30 24.714 30 20 30C15.286 30 12.929 30 11.464 28.535C10 27.072 10 24.714 10 20Z" stroke="black" stroke-width="1.5"/>
<path d="M25 23H20M15 18L15.234 18.195C16.516 19.263 17.157 19.797 17.157 20.5C17.157 21.203 16.517 21.737 15.234 22.805L15 23" stroke="black" stroke-width="1.5" stroke-linecap="round"/>
</svg>
