<svg width="24" height="24" viewBox="0 0 24 24" fill="none" xmlns="http://www.w3.org/2000/svg">
<path d="M4 12C4 11.057 4 10.586 4.293 10.293C4.586 10 5.057 10 6 10H18C18.943 10 19.414 10 19.707 10.293C20 10.586 20 11.057 20 12V18.038C20 18.418 20 18.609 19.971 18.778C19.9149 19.1031 19.7793 19.4093 19.5762 19.6692C19.3731 19.9292 19.1089 20.1349 18.807 20.268C18.651 20.338 18.466 20.384 18.097 20.476C16.859 20.786 16.24 20.94 15.621 21.054C13.227 21.494 10.773 21.494 8.378 21.054C7.76 20.94 7.141 20.785 5.904 20.476C5.534 20.384 5.349 20.337 5.194 20.269C4.89171 20.1359 4.6271 19.9299 4.42381 19.6696C4.22052 19.4092 4.08488 19.1026 4.029 18.777C4 18.61 4 18.42 4 18.037V12Z" fill="#B8B8B8" fill-opacity="0.25"/>
<path d="M16.5 10V9C16.5 7.80653 16.0259 6.66193 15.182 5.81802C14.3381 4.97411 13.1935 4.5 12 4.5C10.8065 4.5 9.66193 4.97411 8.81802 5.81802C7.97411 6.66193 7.5 7.80653 7.5 9V10" stroke="#F8E1AF" stroke-width="2"/>
<path d="M12 17C13.1046 17 14 16.1046 14 15C14 13.8954 13.1046 13 12 13C10.8954 13 10 13.8954 10 15C10 16.1046 10.8954 17 12 17Z" fill="#F8E1AF"/>
<path d="M12 16V18.5" stroke="#F8E1AF" stroke-linecap="round"/>
</svg>
