<svg width="40" height="40" viewBox="0 0 40 40" fill="none" xmlns="http://www.w3.org/2000/svg">
<rect width="40" height="40" rx="20" fill="#F6F6F6"/>
<path d="M10.5 20C10.5 15.522 10.5 13.282 11.891 11.891C13.282 10.5 15.521 10.5 20 10.5C24.478 10.5 26.718 10.5 28.109 11.891C29.5 13.282 29.5 15.521 29.5 20C29.5 24.478 29.5 26.718 28.109 28.109C26.718 29.5 24.479 29.5 20 29.5C15.522 29.5 13.282 29.5 11.891 28.109C10.5 26.718 10.5 24.479 10.5 20Z" stroke="black" stroke-width="1.5" stroke-linecap="round" stroke-linejoin="round"/>
<path d="M13.5 20.5L13.975 20.184C14.448 19.868 14.685 19.71 14.913 19.78C15.14 19.851 15.246 20.115 15.458 20.644L17 24.5L19.088 18.235C19.528 16.915 19.748 16.255 20.272 15.878C20.796 15.501 21.492 15.5 22.883 15.5H26.5M25 20L23.5 21.5M23.5 21.5L22 23M23.5 21.5L25 23M23.5 21.5L22 20" stroke="black" stroke-width="1.5" stroke-linecap="round" stroke-linejoin="round"/>
</svg>
