<svg width="40" height="40" viewBox="0 0 40 40" fill="none" xmlns="http://www.w3.org/2000/svg">
<rect width="40" height="40" rx="20" fill="#F6F6F6"/>
<path d="M28.312 20.647L28.829 18.715C29.433 16.46 29.736 15.333 29.509 14.357C29.3291 13.5865 28.9247 12.8867 28.347 12.346C27.616 11.661 26.488 11.359 24.233 10.755C21.978 10.15 20.85 9.848 19.875 10.075C19.1045 10.2549 18.4047 10.6593 17.864 11.237C17.277 11.863 16.971 12.78 16.516 14.446L16.272 15.351L15.755 17.283C15.15 19.538 14.848 20.665 15.075 21.641C15.2549 22.4115 15.6593 23.1113 16.237 23.652C16.968 24.337 18.096 24.639 20.351 25.244C22.383 25.788 23.5 26.087 24.415 25.974C24.515 25.962 24.613 25.944 24.709 25.922C25.4793 25.7426 26.1791 25.339 26.72 24.762C27.405 24.03 27.707 22.902 28.312 20.647Z" stroke="black" stroke-width="1.5"/>
<path d="M24.415 25.974C24.206 26.6143 23.8386 27.1915 23.347 27.652C22.616 28.337 21.488 28.639 19.233 29.243C16.978 29.847 15.85 30.15 14.875 29.922C14.1046 29.7424 13.4048 29.3383 12.864 28.761C12.179 28.03 11.876 26.902 11.272 24.647L10.755 22.715C10.15 20.46 9.848 19.332 10.075 18.357C10.2549 17.5865 10.6593 16.8867 11.237 16.346C11.968 15.661 13.096 15.359 15.351 14.754C15.777 14.64 16.164 14.536 16.516 14.445" stroke="black" stroke-width="1.5"/>
<path d="M19.777 18L24.607 19.294M19 20.898L21.898 21.674" stroke="black" stroke-width="1.5" stroke-linecap="round"/>
</svg>
