<svg width="40" height="40" viewBox="0 0 40 40" fill="none" xmlns="http://www.w3.org/2000/svg">
<rect width="40" height="40" rx="20" fill="#F6F6F6"/>
<path d="M30 19C30.0028 18.2952 29.8193 17.6021 29.4681 16.991C29.1169 16.3799 28.6104 15.8724 28 15.52C28.0151 15.347 28.0151 15.173 28 15C28 14.2044 27.6839 13.4413 27.1213 12.8787C26.5587 12.3161 25.7956 12 25 12H24.82C24.6535 11.5383 24.3762 11.1245 24.0125 10.7949C23.6489 10.4654 23.2099 10.23 22.7341 10.1096C22.2583 9.98918 21.7602 9.98732 21.2835 10.1042C20.8068 10.2211 20.3661 10.4531 20 10.78C19.6339 10.4531 19.1932 10.2211 18.7165 10.1042C18.2398 9.98732 17.7417 9.98918 17.2659 10.1096C16.7901 10.23 16.3511 10.4654 15.9875 10.7949C15.6238 11.1245 15.3465 11.5383 15.18 12H15C14.2044 12 13.4413 12.3161 12.8787 12.8787C12.3161 13.4413 12 14.2044 12 15C11.9849 15.173 11.9849 15.347 12 15.52C11.4325 15.8408 10.9519 16.2954 10.6002 16.8444C10.2485 17.3933 10.0364 18.0199 9.98214 18.6695C9.92792 19.3192 10.0333 19.9723 10.2891 20.5719C10.545 21.1716 10.9435 21.6996 11.45 22.11C11.1223 22.7213 10.9591 23.4072 10.9765 24.1006C10.994 24.794 11.1914 25.4709 11.5494 26.0649C11.9075 26.6589 12.4138 27.1496 13.0187 27.4889C13.6237 27.8282 14.3064 28.0043 15 28H15.18C15.3465 28.4617 15.6238 28.8755 15.9875 29.2051C16.3511 29.5346 16.7901 29.77 17.2659 29.8904C17.7417 30.0108 18.2398 30.0127 18.7165 29.8958C19.1932 29.7789 19.6339 29.5469 20 29.22C20.3661 29.5469 20.8068 29.7789 21.2835 29.8958C21.7602 30.0127 22.2583 30.0108 22.7341 29.8904C23.2099 29.77 23.6489 29.5346 24.0125 29.2051C24.3762 28.8755 24.6535 28.4617 24.82 28H25C25.6893 27.9956 26.3658 27.8132 26.9639 27.4704C27.562 27.1276 28.0613 26.6361 28.4134 26.0435C28.7656 25.4508 28.9586 24.7773 28.9738 24.0881C28.9889 23.3989 28.8257 22.7175 28.5 22.11C28.9664 21.7366 29.3433 21.2634 29.6029 20.7252C29.8624 20.187 29.9981 19.5975 30 19ZM19 16.55C18.7822 16.4254 18.5548 16.3184 18.32 16.23C18.068 16.1451 17.7927 16.1638 17.5545 16.282C17.3164 16.4001 17.1349 16.608 17.05 16.86C16.9651 17.112 16.9838 17.3873 17.102 17.6255C17.2201 17.8636 17.428 18.0451 17.68 18.13C18.0649 18.2692 18.3979 18.5231 18.634 18.8575C18.87 19.1919 18.9978 19.5907 19 20V21.55C18.7822 21.4254 18.5548 21.3184 18.32 21.23C18.068 21.1451 17.7927 21.1638 17.5545 21.282C17.3164 21.4001 17.1349 21.608 17.05 21.86C16.9651 22.112 16.9838 22.3873 17.102 22.6255C17.2201 22.8636 17.428 23.0451 17.68 23.13C18.0649 23.2692 18.3979 23.5231 18.634 23.8575C18.87 24.1919 18.9978 24.5907 19 25V27C19 27.2652 18.8946 27.5196 18.7071 27.7071C18.5196 27.8946 18.2652 28 18 28C17.8065 27.9987 17.6176 27.9414 17.4561 27.8349C17.2945 27.7284 17.1674 27.5773 17.09 27.4C17.2577 27.3016 17.4181 27.1913 17.57 27.07C17.6711 26.986 17.7547 26.8828 17.8159 26.7665C17.8772 26.6501 17.9149 26.5229 17.927 26.3919C17.9391 26.261 17.9253 26.129 17.8863 26.0034C17.8474 25.8778 17.784 25.7611 17.7 25.66C17.616 25.5589 17.5128 25.4753 17.3965 25.4141C17.2801 25.3528 17.1529 25.3151 17.0219 25.303C16.891 25.2909 16.759 25.3047 16.6334 25.3437C16.5078 25.3826 16.3911 25.446 16.29 25.53C15.9289 25.834 15.472 26.0005 15 26C14.4696 26 13.9609 25.7893 13.5858 25.4142C13.2107 25.0391 13 24.5304 13 24C13.0048 23.6236 13.1157 23.2562 13.32 22.94C13.5444 22.9803 13.772 23.0003 14 23C14.2652 23 14.5196 22.8946 14.7071 22.7071C14.8946 22.5196 15 22.2652 15 22C15 21.7348 14.8946 21.4804 14.7071 21.2929C14.5196 21.1054 14.2652 21 14 21C13.7638 21.0014 13.5295 20.9572 13.31 20.87C12.9503 20.7403 12.6354 20.5102 12.4025 20.207C12.1696 19.9038 12.0284 19.5402 11.9958 19.1593C11.9632 18.7783 12.0405 18.396 12.2184 18.0576C12.3964 17.7193 12.6676 17.439 13 17.25C13.1421 17.3807 13.2961 17.4979 13.46 17.6C13.6907 17.7326 13.9647 17.7681 14.2216 17.6987C14.4786 17.6293 14.6974 17.4607 14.83 17.23C14.9626 16.9993 14.9981 16.7253 14.9287 16.4684C14.8593 16.2114 14.6907 15.9926 14.46 15.86C14.3192 15.7823 14.2018 15.6684 14.12 15.53C14.0275 15.3694 13.9857 15.1847 14 15C14 14.7348 14.1054 14.4804 14.2929 14.2929C14.4804 14.1054 14.7348 14 15 14C15.0697 13.9903 15.1403 13.9903 15.21 14C15.2629 14.1607 15.3264 14.3177 15.4 14.47C15.4653 14.5846 15.5527 14.6851 15.657 14.7658C15.7614 14.8465 15.8807 14.9057 16.008 14.9401C16.1353 14.9745 16.2682 14.9834 16.399 14.9662C16.5298 14.949 16.6559 14.9061 16.77 14.84C16.9917 14.7066 17.1531 14.4925 17.2202 14.2426C17.2873 13.9927 17.255 13.7265 17.13 13.5C17.0461 13.3466 17.0014 13.1748 17 13C17 12.7348 17.1054 12.4804 17.2929 12.2929C17.4804 12.1054 17.7348 12 18 12C18.2652 12 18.5196 12.1054 18.7071 12.2929C18.8946 12.4804 19 12.7348 19 13V16.55ZM26.69 20.87C26.4705 20.9572 26.2362 21.0014 26 21C25.7348 21 25.4804 21.1054 25.2929 21.2929C25.1054 21.4804 25 21.7348 25 22C25 22.2652 25.1054 22.5196 25.2929 22.7071C25.4804 22.8946 25.7348 23 26 23C26.228 23.0003 26.4556 22.9803 26.68 22.94C26.8843 23.2562 26.9952 23.6236 27 24C27 24.5304 26.7893 25.0391 26.4142 25.4142C26.0391 25.7893 25.5304 26 25 26C24.528 26.0005 24.0711 25.834 23.71 25.53C23.5058 25.3603 23.2425 25.2786 22.9781 25.303C22.7137 25.3274 22.4697 25.4558 22.3 25.66C22.1303 25.8642 22.0486 26.1275 22.073 26.3919C22.0974 26.6564 22.2258 26.9003 22.43 27.07C22.5819 27.1913 22.7423 27.3016 22.91 27.4C22.8326 27.5773 22.7055 27.7284 22.5439 27.8349C22.3824 27.9414 22.1935 27.9987 22 28C21.7348 28 21.4804 27.8946 21.2929 27.7071C21.1054 27.5196 21 27.2652 21 27V25C21.0022 24.5907 21.13 24.1919 21.366 23.8575C21.6021 23.5231 21.9351 23.2692 22.32 23.13C22.572 23.0451 22.7799 22.8636 22.898 22.6255C23.0162 22.3873 23.0349 22.112 22.95 21.86C22.8651 21.608 22.6836 21.4001 22.4455 21.282C22.2073 21.1638 21.932 21.1451 21.68 21.23C21.4452 21.3184 21.2178 21.4254 21 21.55V20C21.0022 19.5907 21.13 19.1919 21.366 18.8575C21.6021 18.5231 21.9351 18.2692 22.32 18.13C22.4448 18.088 22.56 18.0218 22.6592 17.9352C22.7584 17.8487 22.8395 17.7434 22.898 17.6255C22.9565 17.5075 22.9912 17.3792 23.0001 17.2479C23.0091 17.1166 22.992 16.9848 22.95 16.86C22.908 16.7352 22.8418 16.62 22.7552 16.5208C22.6687 16.4216 22.5634 16.3405 22.4455 16.282C22.3275 16.2235 22.1992 16.1888 22.0679 16.1799C21.9366 16.1709 21.8048 16.188 21.68 16.23C21.4452 16.3184 21.2178 16.4254 21 16.55V13C21 12.7348 21.1054 12.4804 21.2929 12.2929C21.4804 12.1054 21.7348 12 22 12C22.2652 12 22.5196 12.1054 22.7071 12.2929C22.8946 12.4804 23 12.7348 23 13C22.9986 13.1748 22.9539 13.3466 22.87 13.5C22.8035 13.6135 22.76 13.7391 22.7421 13.8695C22.7242 13.9998 22.7322 14.1325 22.7656 14.2597C22.7991 14.387 22.8573 14.5064 22.937 14.6112C23.0167 14.7159 23.1162 14.8038 23.23 14.87C23.3441 14.9361 23.4702 14.979 23.601 14.9962C23.7318 15.0134 23.8647 15.0045 23.992 14.9701C24.1193 14.9357 24.2386 14.8765 24.343 14.7958C24.4473 14.7151 24.5347 14.6146 24.6 14.5C24.6748 14.3379 24.7383 14.1709 24.79 14C24.8597 13.9903 24.9303 13.9903 25 14C25.2652 14 25.5196 14.1054 25.7071 14.2929C25.8946 14.4804 26 14.7348 26 15C25.9985 15.196 25.9394 15.3873 25.83 15.55C25.7482 15.6798 25.6346 15.7865 25.5 15.86C25.2693 15.9926 25.1007 16.2114 25.0313 16.4684C24.9619 16.7253 24.9974 16.9993 25.13 17.23C25.2626 17.4607 25.4814 17.6293 25.7384 17.6987C25.9953 17.7681 26.2693 17.7326 26.5 17.6C26.6795 17.5029 26.8473 17.3855 27 17.25C27.3335 17.4356 27.6069 17.7128 27.788 18.0488C27.969 18.3848 28.0501 18.7657 28.0217 19.1463C27.9934 19.5269 27.8566 19.8915 27.6278 20.1969C27.3989 20.5023 27.0873 20.7359 26.73 20.87H26.69Z" fill="black"/>
</svg>
