<svg width="24" height="24" viewBox="0 0 24 24" fill="none" xmlns="http://www.w3.org/2000/svg">
<path d="M21.798 16.987C18.931 16.515 17.647 13.586 17.594 13.461L17.588 13.45C17.5065 13.3168 17.4552 13.1674 17.4375 13.0123C17.4199 12.8572 17.4365 12.7001 17.486 12.552C17.678 12.098 18.316 11.896 18.737 11.762C18.843 11.729 18.942 11.697 19.02 11.666C19.783 11.366 19.938 11.053 19.934 10.844C19.9142 10.714 19.8561 10.5928 19.767 10.4961C19.6779 10.3993 19.562 10.3314 19.434 10.301L19.427 10.299C19.3135 10.2545 19.1929 10.2311 19.071 10.23C18.9635 10.2298 18.857 10.2512 18.758 10.293C18.4606 10.4445 18.1359 10.535 17.803 10.559C17.6109 10.5636 17.4234 10.5006 17.273 10.381L17.305 9.85102L17.309 9.78602C17.5017 8.43859 17.4201 7.0661 17.069 5.75102C16.6547 4.80685 15.9715 4.00558 15.1048 3.44718C14.238 2.88877 13.226 2.59796 12.195 2.61102L11.793 2.61602C10.7638 2.60338 9.7536 2.89414 8.88859 3.45203C8.02358 4.00991 7.34202 4.8102 6.929 5.75302C6.5778 7.06669 6.49549 8.43776 6.687 9.78402C6.70034 9.98335 6.71234 10.1827 6.723 10.382C6.5571 10.5116 6.349 10.5751 6.139 10.56C5.78562 10.5449 5.43969 10.4535 5.125 10.292C5.04768 10.2587 4.9642 10.242 4.88 10.243C4.70616 10.2357 4.53443 10.2833 4.38908 10.3789C4.24373 10.4746 4.13211 10.6135 4.07 10.776C3.988 11.206 4.602 11.519 4.976 11.666C5.056 11.698 5.154 11.729 5.259 11.762C5.681 11.896 6.319 12.098 6.511 12.552C6.56055 12.7001 6.57709 12.8572 6.55947 13.0123C6.54185 13.1674 6.49049 13.3168 6.409 13.45L6.403 13.461C6.12714 14.0631 5.76721 14.623 5.334 15.124C4.54721 16.1015 3.43463 16.7629 2.2 16.987C2.14174 16.9968 2.08913 17.0277 2.05223 17.0738C2.01532 17.1199 1.99673 17.178 2 17.237C2.00265 17.2817 2.0128 17.3257 2.03 17.367C2.207 17.778 3.089 18.117 4.583 18.348C4.723 18.37 4.781 18.598 4.863 18.97C4.895 19.12 4.929 19.275 4.976 19.435C4.99162 19.5059 5.033 19.5685 5.09212 19.6106C5.15124 19.6527 5.2239 19.6714 5.296 19.663C5.43879 19.6552 5.58065 19.6351 5.72 19.603C6.088 19.5224 6.46331 19.4799 6.84 19.476C7.11107 19.4767 7.38162 19.4995 7.649 19.544C8.21274 19.6876 8.73721 19.9555 9.184 20.328C9.93729 20.9716 10.8842 21.3447 11.874 21.388C11.9073 21.388 11.9407 21.3867 11.974 21.384C12.014 21.386 12.069 21.388 12.125 21.388C13.1154 21.3444 14.0628 20.9713 14.817 20.328C15.2632 19.9557 15.787 19.6879 16.35 19.544C16.6171 19.4995 16.8873 19.4768 17.158 19.476C17.5344 19.4779 17.9096 19.5178 18.278 19.595C18.4178 19.6253 18.56 19.6431 18.703 19.648H18.727C18.7945 19.6532 18.8615 19.6337 18.9157 19.5933C18.9699 19.5528 19.0077 19.4941 19.022 19.428C19.0652 19.2754 19.1032 19.1213 19.136 18.966C19.217 18.595 19.276 18.368 19.416 18.346C20.91 18.116 21.793 17.776 21.967 17.368C21.9849 17.3268 21.9957 17.2828 21.999 17.238C22.0023 17.179 21.9837 17.1209 21.9468 17.0748C21.9099 17.0287 21.8573 16.9978 21.799 16.988" fill="#FFBB1C"/>
</svg>
