<svg width="20" height="20" viewBox="0 0 24 24" fill="none" xmlns="http://www.w3.org/2000/svg">
<path d="M3.81099 10.2329L7.81498 9.42194C7.95197 9.394 8.08156 9.33765 8.19542 9.25652C8.30927 9.17539 8.40485 9.07129 8.47598 8.95094L10.125 6.16694L11.139 4.45294C11.2274 4.30326 11.3533 4.17921 11.5043 4.09304C11.6553 4.00687 11.8261 3.96155 12 3.96155C12.1738 3.96155 12.3447 4.00687 12.4957 4.09304C12.6467 4.17921 12.7726 4.30326 12.861 4.45294L15.524 8.95094C15.5953 9.07122 15.6911 9.17519 15.8051 9.25615C15.9192 9.33711 16.0489 9.39324 16.186 9.42094L20.189 10.2329C20.3655 10.2688 20.5291 10.3517 20.6624 10.4728C20.7957 10.594 20.8938 10.7489 20.9463 10.9212C20.9989 11.0935 21.0039 11.2768 20.9609 11.4517C20.9179 11.6266 20.8284 11.7867 20.702 11.9149L17.372 15.2899C17.2573 15.4059 17.1728 15.5482 17.1257 15.7044C17.0786 15.8606 17.0705 16.0259 17.102 16.1859L17.852 19.9869C17.8882 20.1707 17.8721 20.361 17.8055 20.5361C17.7388 20.7111 17.6244 20.864 17.4751 20.9771C17.3259 21.0903 17.1478 21.1593 16.9613 21.1763C16.7747 21.1932 16.5872 21.1574 16.42 21.0729L12.452 19.0629C12.3119 18.992 12.157 18.955 12 18.955C11.8429 18.955 11.6881 18.992 11.548 19.0629L7.57998 21.0729C7.41276 21.1577 7.22507 21.1937 7.03836 21.1769C6.85164 21.1601 6.67341 21.0911 6.52399 20.9779C6.37458 20.8647 6.26001 20.7117 6.19335 20.5365C6.12668 20.3613 6.11062 20.1709 6.14698 19.9869L6.89698 16.1859C6.92859 16.026 6.92061 15.8607 6.87372 15.7045C6.82684 15.5484 6.74247 15.406 6.62798 15.2899L3.29799 11.9149C3.17153 11.7867 3.08207 11.6266 3.03906 11.4517C2.99605 11.2768 3.00108 11.0935 3.05363 10.9212C3.10618 10.7489 3.20429 10.594 3.3376 10.4728C3.47091 10.3517 3.63446 10.2688 3.81099 10.2329Z" fill="#FFC107"/>
</svg>
