<svg width="40" height="40" viewBox="0 0 40 40" fill="none" xmlns="http://www.w3.org/2000/svg">
<rect width="40" height="40" rx="20" fill="#F2F2F2"/>
<path d="M18.0801 16L16.4201 23.144C16.0601 24.694 15.8811 25.468 16.0871 26.196L16.0991 26.239C16.3151 26.964 16.8811 27.517 18.0111 28.624C18.9441 29.537 19.4111 29.994 19.9841 30H20.0161C20.5901 29.993 21.0561 29.537 21.9891 28.624C23.1191 27.517 23.6851 26.964 23.9011 26.239L23.9131 26.196C24.1191 25.468 23.9391 24.693 23.5791 23.144L21.9211 16M16.7211 13.61C16.1621 12.62 15.8831 12.124 16.0471 11.674C16.2111 11.224 16.7391 11.036 17.7951 10.662L18.6951 10.343C19.3411 10.114 19.6651 10 20.0001 10C20.3351 10 20.6591 10.114 21.3051 10.343L22.2051 10.663C23.2611 11.036 23.7891 11.223 23.9531 11.673C24.1181 12.123 23.8381 12.619 23.2791 13.609L22.7631 14.524C22.4981 14.993 22.3661 15.227 22.1331 15.411C21.9031 15.595 21.6881 15.656 21.2581 15.779C20.8471 15.897 20.3781 16 20.0001 16C19.6221 16 19.1531 15.897 18.7421 15.779C18.3121 15.656 18.0981 15.595 17.8661 15.411C17.6341 15.227 17.5021 14.993 17.2371 14.524L16.7211 13.61Z" stroke="black" stroke-width="1.5" stroke-linecap="round" stroke-linejoin="round"/>
</svg>
