<svg width="25" height="24" viewBox="0 0 25 24" fill="none" xmlns="http://www.w3.org/2000/svg">
<path d="M20.09 6.69C19.0932 6.47079 18.1914 5.94144 17.5141 5.17789C16.8368 4.41435 16.4188 3.45587 16.32 2.44V2H12.87V15.67C12.8707 16.2766 12.6806 16.868 12.3265 17.3604C11.9724 17.8529 11.4723 18.2215 10.8971 18.414C10.3219 18.6065 9.70068 18.6131 9.1215 18.4329C8.54232 18.2527 8.03452 17.8948 7.67002 17.41C7.34347 16.9808 7.14351 16.4689 7.09275 15.932C7.04199 15.3951 7.14247 14.8548 7.3828 14.372C7.62314 13.8892 7.99375 13.4834 8.45274 13.2003C8.91172 12.9172 9.44075 12.7681 9.98002 12.77C10.2783 12.7683 10.575 12.8121 10.86 12.9V9.4C10.5284 9.35893 10.1941 9.34222 9.86002 9.35C8.62933 9.38288 7.43494 9.77393 6.42311 10.4753C5.41127 11.1766 4.62591 12.1578 4.1632 13.2986C3.70049 14.4395 3.5805 15.6905 3.81794 16.8986C4.05538 18.1066 4.63993 19.2191 5.50002 20.1C6.38151 20.9962 7.50952 21.6101 8.74072 21.8638C9.97192 22.1175 11.2507 21.9994 12.4147 21.5246C13.5786 21.0498 14.5752 20.2397 15.2776 19.1973C15.9801 18.1548 16.3569 16.9271 16.36 15.67V8.67C17.7515 9.66395 19.42 10.1956 21.13 10.19V6.79C20.7941 6.79139 20.459 6.75787 20.13 6.69H20.09Z" fill="#151515"/>
</svg>
