<svg width="24" height="24" viewBox="0 0 24 24" fill="none" xmlns="http://www.w3.org/2000/svg">
<g clip-path="url(#clip0_41_50)">
<path d="M11.8685 10.5221L12.7345 10.0221C13.7681 9.42537 14.5222 8.44249 14.8311 7.28968C15.14 6.13687 14.9783 4.90858 14.3816 3.875C13.7849 2.84142 12.802 2.08722 11.6492 1.77833C10.4964 1.46944 9.26806 1.63115 8.23448 2.22788L7.36845 2.72788" stroke="#FAFAFA" stroke-width="2"/>
</g>
<path d="M4 12C4 11.057 4 10.586 4.293 10.293C4.586 10 5.057 10 6 10H18C18.943 10 19.414 10 19.707 10.293C20 10.586 20 11.057 20 12V18.038C20 18.418 20 18.609 19.971 18.778C19.9149 19.1031 19.7793 19.4093 19.5762 19.6692C19.3731 19.9292 19.1089 20.1349 18.807 20.268C18.651 20.338 18.466 20.384 18.097 20.476C16.859 20.786 16.24 20.94 15.621 21.054C13.227 21.494 10.773 21.494 8.378 21.054C7.76 20.94 7.141 20.785 5.904 20.476C5.534 20.384 5.349 20.337 5.194 20.269C4.89171 20.1359 4.6271 19.9299 4.42381 19.6696C4.22052 19.4092 4.08488 19.1026 4.029 18.777C4 18.61 4 18.42 4 18.037V12Z" fill="#B8B8B8" fill-opacity="0.5"/>
<path d="M13.5 15C13.5 15.8284 12.8284 16.5 12 16.5C11.1716 16.5 10.5 15.8284 10.5 15C10.5 14.1716 11.1716 13.5 12 13.5C12.8284 13.5 13.5 14.1716 13.5 15Z" fill="#FAFAFA" stroke="#FAFAFA"/>
<path d="M12 16V18.5Z" fill="#FAFAFA"/>
<path d="M12 16V18.5" stroke="#FAFAFA" stroke-linecap="round"/>
<defs>
<clipPath id="clip0_41_50">
<rect width="11" height="10" fill="white" transform="translate(6)"/>
</clipPath>
</defs>
</svg>
