<svg width="40" height="40" viewBox="0 0 40 40" fill="none" xmlns="http://www.w3.org/2000/svg">
<rect width="40" height="40" rx="20" fill="#F6F6F6"/>
<path d="M29 28C29 26.258 27.33 24.777 25 24.227M23 28C23 25.79 20.314 24 17 24C13.686 24 11 25.79 11 28M23 21C24.0609 21 25.0783 20.5786 25.8284 19.8284C26.5786 19.0783 27 18.0609 27 17C27 15.9391 26.5786 14.9217 25.8284 14.1716C25.0783 13.4214 24.0609 13 23 13M17 21C15.9391 21 14.9217 20.5786 14.1716 19.8284C13.4214 19.0783 13 18.0609 13 17C13 15.9391 13.4214 14.9217 14.1716 14.1716C14.9217 13.4214 15.9391 13 17 13C18.0609 13 19.0783 13.4214 19.8284 14.1716C20.5786 14.9217 21 15.9391 21 17C21 18.0609 20.5786 19.0783 19.8284 19.8284C19.0783 20.5786 18.0609 21 17 21Z" stroke="black" stroke-width="2" stroke-linecap="round" stroke-linejoin="round"/>
</svg>
