<svg width="24" height="24" viewBox="0 0 24 24" fill="none" xmlns="http://www.w3.org/2000/svg">
<g clip-path="url(#clip0_56_61)">
<path d="M14.3775 0.779999L15.771 1.8C16.0005 1.968 16.2675 2.079 16.548 2.1225L18.255 2.385C19.0994 2.51529 19.8804 2.91124 20.4846 3.51542C21.0888 4.11959 21.4847 4.90056 21.615 5.745L21.876 7.4535C21.9195 7.734 22.0305 8.001 22.1985 8.2305L23.2185 9.6225C23.7242 10.312 23.9969 11.1449 23.9969 12C23.9969 12.8551 23.7242 13.688 23.2185 14.3775L22.1985 15.7695C22.0311 15.9994 21.9206 16.2657 21.876 16.5465L21.6135 18.2535C21.4834 19.0984 21.0874 19.8799 20.4829 20.4844C19.8784 21.0889 19.0969 21.4849 18.252 21.615L16.545 21.8775C16.2642 21.9221 15.9979 22.0326 15.768 22.2L14.376 23.22C13.6865 23.7257 12.8536 23.9984 11.9985 23.9984C11.1434 23.9984 10.3105 23.7257 9.621 23.22L8.229 22.2C7.99911 22.0326 7.73284 21.9221 7.452 21.8775L5.745 21.615C4.90056 21.4847 4.11959 21.0888 3.51542 20.4846C2.91124 19.8804 2.51529 19.0994 2.385 18.255L2.1225 16.548C2.07788 16.2672 1.96736 16.0009 1.8 15.771L0.779999 14.379C0.274266 13.6895 0.00158691 12.8566 0.00158691 12.0015C0.00158691 11.1464 0.274266 10.3135 0.779999 9.624L1.8 8.232C1.968 8.0025 2.079 7.7355 2.1225 7.455L2.385 5.745C2.51529 4.90056 2.91124 4.11959 3.51542 3.51542C4.11959 2.91124 4.90056 2.51529 5.745 2.385L7.4535 2.1225C7.734 2.079 8.001 1.968 8.2305 1.8L9.6225 0.779999C10.312 0.274266 11.1449 0.00158691 12 0.00158691C12.8551 0.00158691 13.688 0.274266 14.3775 0.779999ZM10.9545 2.592L9.564 3.612C9.04116 3.99455 8.43417 4.24608 7.794 4.3455L6.0885 4.6065C5.71634 4.66371 5.37212 4.83812 5.10587 5.10437C4.83962 5.37062 4.66521 5.71484 4.608 6.087L4.347 7.791C4.24758 8.43117 3.99605 9.03816 3.6135 9.561L2.5935 10.953C2.37143 11.2564 2.25172 11.6225 2.25172 11.9985C2.25172 12.3745 2.37143 12.7406 2.5935 13.044L3.6135 14.4345C3.9975 14.9565 4.2495 15.564 4.347 16.2045L4.608 17.91C4.725 18.6735 5.325 19.2735 6.0885 19.3905L7.7925 19.6515C8.43267 19.7509 9.03966 20.0025 9.5625 20.385L10.9545 21.405C11.5755 21.8625 12.423 21.8625 13.0455 21.405L14.436 20.385C14.9588 20.0025 15.5658 19.7509 16.206 19.6515L17.9115 19.3905C18.2837 19.3333 18.6279 19.1589 18.8941 18.8926C19.1604 18.6264 19.3348 18.2822 19.392 17.91L19.653 16.206C19.7524 15.5658 20.004 14.9588 20.3865 14.436L21.4065 13.044C21.6286 12.7406 21.7483 12.3745 21.7483 11.9985C21.7483 11.6225 21.6286 11.2564 21.4065 10.953L20.3865 9.5625C20.004 9.03966 19.7524 8.43267 19.653 7.7925L19.392 6.087C19.3348 5.71484 19.1604 5.37062 18.8941 5.10437C18.6279 4.83812 18.2837 4.66371 17.9115 4.6065L16.2075 4.3455C15.5673 4.24608 14.9603 3.99455 14.4375 3.612L13.0455 2.592C12.7421 2.36993 12.376 2.25022 12 2.25022C11.624 2.25022 11.2579 2.36993 10.9545 2.592ZM16.92 10.17L11.295 15.795C11.0841 16.0057 10.7981 16.124 10.5 16.124C10.2019 16.124 9.91594 16.0057 9.705 15.795L7.08 13.17C6.88104 12.9568 6.77264 12.6746 6.77768 12.383C6.78272 12.0915 6.90079 11.8132 7.107 11.607C7.31322 11.4008 7.59146 11.2827 7.88304 11.2777C8.17463 11.2726 8.45678 11.381 8.67 11.58L10.5 13.41L15.33 8.58C15.5432 8.38104 15.8254 8.27264 16.117 8.27768C16.4085 8.28272 16.6868 8.40079 16.893 8.607C17.0992 8.81322 17.2173 9.09146 17.2223 9.38304C17.2274 9.67463 17.119 9.95678 16.92 10.17Z" fill="black"/>
</g>
<defs>
<clipPath id="clip0_56_61">
<rect width="24" height="24" fill="white"/>
</clipPath>
</defs>
</svg>
